<svg width="176" height="100" viewBox="0 0 176 100" fill="none" xmlns="http://www.w3.org/2000/svg">
<path d="M63.5995 34C65.0995 34.2 66.4995 35.2 67.1995 36.6C67.4995 37.1 67.5995 37.7 67.6995 38.3C68.2995 38 68.9995 37.9 69.7995 37.9C71.7995 37.9 73.5995 38.8 74.5995 40.4C76.2995 43 77.0995 45.4 76.9995 47.4C76.6995 52.6 74.3995 68.3 68.3995 77.8C67.6995 78.9 67.1995 80 66.8995 81.2L65.8995 84.7C64.9995 87.8 62.1995 90 58.8995 90H47.9995C44.5995 90 41.5995 87.6 40.8995 84.3L39.7995 79.3C39.5995 78.2 39.1995 77.2 38.6995 76.2C32.9995 64.9 30.3995 57.8 30.8995 55.3C30.9995 54.7 31.3995 53.8 31.8995 52.6L23.5995 36.2C23.1995 35.4 22.9995 34.4 22.9995 33.5C22.9995 31.6 23.8995 29.8 25.3995 28.7C26.5995 27.8 27.9995 27.4 29.4995 27.6L26.4995 21C25.7995 19.5 25.7995 17.8 26.3995 16.3C26.9995 14.8 28.1995 13.6 29.6995 13L29.9995 12.9C32.6995 11.8 35.6995 12.9 37.1995 15.3C37.3995 14.4 37.7995 13.6 38.1995 13C39.6995 10.9 42.0995 9.89999 44.6995 10.3C48.0995 10.8 50.5995 14 50.2995 17.4L48.9995 33.7C49.2995 33.7 49.4995 33.6 49.7995 33.6C54.0995 33.3 59.6995 33.5 63.5995 34ZM27.2995 31.1C26.5995 31.7 26.0995 32.5 26.0995 33.5C26.0995 33.9 26.1995 34.4 26.3995 34.8L33.2995 48.4L34.4995 38.3L31.6995 32.3C31.2995 31.5 30.5995 30.9 29.6995 30.7C28.8995 30.4 27.9995 30.6 27.2995 31.1ZM34.9995 17.2C34.3995 15.7 32.6995 15 31.1995 15.6L30.8995 15.7C30.0995 16 29.5995 16.6 29.1995 17.3C28.8995 18.1 28.8995 18.9 29.2995 19.6L34.3995 30.8C34.3995 30.8 34.3995 30.8 34.3995 30.9L35.0995 32.4L36.4995 20.7L34.9995 17.2ZM44.2995 13C42.8995 12.8 41.5995 13.4 40.6995 14.5C40.3995 14.9 40.1995 15.5 40.0995 16.2L36.6995 44.5C39.3995 40.6 42.7995 36.7 45.9995 34.7L47.4995 17C47.5995 15.1 46.1995 13.3 44.2995 13ZM33.8995 55.8C33.5995 57.2 35.7995 63.7 41.3995 74.8C41.9995 76 42.3995 77.3 42.6995 78.6L43.7995 83.6C44.2995 85.6 45.9995 87 47.9995 87H58.8995C60.7995 87 62.4995 85.7 62.9995 83.9L63.9995 80.4C64.3995 78.9 64.9995 77.5 65.8995 76.2C71.4995 67.2 73.6995 51.9 73.9995 47.2C73.9995 45.8 73.2995 44 71.9995 42C71.4995 41.3 70.6995 40.8 69.7995 40.8C69.7995 40.8 69.7995 40.8 69.6995 40.8C68.7995 40.8 67.8995 41.3 67.4995 42.1C67.2995 42.4 67.2995 42.7 67.3995 42.9C68.3995 46.9 67.9995 50.1 66.2995 52.4C63.6995 55.7 58.9995 56.1 55.5995 56.1C53.1995 56.1 51.1995 54.9 49.9995 52.7C48.4995 49.8 48.8995 45.9 50.9995 42.7C53.3995 39.5 58.5995 39.7 62.5995 40.4C63.2995 40.5 63.9995 40.2 64.3995 39.6C64.6995 39.1 64.6995 38.5 64.3995 38C64.0995 37.5 63.6995 37.2 63.0995 37.1C59.3995 36.6 53.9995 36.4 49.8995 36.5C44.6995 36.6 34.6995 51.8 33.8995 55.8ZM64.4995 43.7C64.4995 43.5 64.3995 43.4 64.3995 43.2C63.6995 43.4 62.8995 43.5 62.0995 43.4C57.7995 42.6 54.5995 43.1 53.4995 44.5C51.9995 46.8 51.5995 49.5 52.6995 51.4C53.0995 52.2 53.9995 53.2 55.5995 53.2C58.2995 53.2 62.0995 52.9 63.8995 50.7C65.0995 49.1 65.2995 46.7 64.4995 43.7Z" fill="white"/>
<path d="M112.401 34C110.901 34.2 109.501 35.2 108.801 36.6C108.501 37.1 108.401 37.7 108.301 38.3C107.701 38 107.001 37.9 106.201 37.9C104.201 37.9 102.401 38.8 101.401 40.4C99.7005 43 98.9005 45.4 99.0005 47.4C99.3005 52.6 101.601 68.3 107.601 77.8C108.301 78.9 108.801 80 109.101 81.2L110.101 84.7C111.001 87.8 113.801 90 117.101 90H128.001C131.401 90 134.401 87.6 135.101 84.3L136.201 79.3C136.401 78.2 136.801 77.2 137.301 76.2C143.001 64.9 145.601 57.8 145.101 55.3C145.001 54.7 144.601 53.8 144.101 52.6L152.401 36.2C152.801 35.4 153.001 34.4 153.001 33.5C153.001 31.6 152.101 29.8 150.601 28.7C149.401 27.8 148.001 27.4 146.501 27.6L149.501 21C150.201 19.5 150.201 17.8 149.601 16.3C149.001 14.8 147.801 13.6 146.301 13L146.001 12.9C143.301 11.8 140.301 12.9 138.801 15.3C138.601 14.4 138.201 13.6 137.801 13C136.301 10.9 133.901 9.89999 131.301 10.3C127.901 10.8 125.401 14 125.701 17.4L127.001 33.7C126.701 33.7 126.501 33.6 126.201 33.6C121.901 33.3 116.301 33.5 112.401 34ZM148.701 31.1C149.401 31.7 149.901 32.5 149.901 33.5C149.901 33.9 149.801 34.4 149.601 34.8L142.701 48.4L141.501 38.3L144.301 32.3C144.701 31.5 145.401 30.9 146.301 30.7C147.101 30.4 148.001 30.6 148.701 31.1ZM141.001 17.2C141.601 15.7 143.301 15 144.801 15.6L145.101 15.7C145.901 16 146.401 16.6 146.801 17.3C147.101 18.1 147.101 18.9 146.701 19.6L141.601 30.8C141.601 30.8 141.601 30.8 141.601 30.9L140.901 32.4L139.501 20.7L141.001 17.2ZM131.701 13C133.101 12.8 134.401 13.4 135.301 14.5C135.601 14.9 135.801 15.5 135.901 16.2L139.301 44.5C136.601 40.6 133.201 36.7 130.001 34.7L128.501 17C128.401 15.1 129.801 13.3 131.701 13ZM142.101 55.8C142.401 57.2 140.201 63.7 134.601 74.8C134.001 76 133.601 77.3 133.301 78.6L132.201 83.6C131.701 85.6 130.001 87 128.001 87H117.101C115.201 87 113.501 85.7 113.001 83.9L112.001 80.4C111.601 78.9 111.001 77.5 110.101 76.2C104.501 67.2 102.301 51.9 102.001 47.2C102.001 45.8 102.701 44 104.001 42C104.501 41.3 105.301 40.8 106.201 40.8C106.201 40.8 106.201 40.8 106.301 40.8C107.201 40.8 108.101 41.3 108.501 42.1C108.701 42.4 108.701 42.7 108.601 42.9C107.601 46.9 108.001 50.1 109.701 52.4C112.301 55.7 117.001 56.1 120.401 56.1C122.801 56.1 124.801 54.9 126.001 52.7C127.501 49.8 127.101 45.9 125.001 42.7C122.601 39.5 117.401 39.7 113.401 40.4C112.701 40.5 112.001 40.2 111.601 39.6C111.301 39.1 111.301 38.5 111.601 38C111.901 37.5 112.301 37.2 112.901 37.1C116.601 36.6 122.001 36.4 126.101 36.5C131.301 36.6 141.301 51.8 142.101 55.8ZM111.501 43.7C111.501 43.5 111.601 43.4 111.601 43.2C112.301 43.4 113.101 43.5 113.901 43.4C118.201 42.6 121.401 43.1 122.501 44.5C124.001 46.8 124.401 49.5 123.301 51.4C122.901 52.2 122.001 53.2 120.401 53.2C117.701 53.2 113.901 52.9 112.101 50.7C110.901 49.1 110.701 46.7 111.501 43.7Z" fill="white"/>
</svg>
