<svg width="96" height="96" viewBox="0 0 96 96" fill="none" xmlns="http://www.w3.org/2000/svg">
<path d="M46.5819 85.4171C47.3629 86.1982 48.6293 86.1982 49.4103 85.4171L62.1382 72.6892C62.9193 71.9082 62.9193 70.6418 62.1382 69.8608C61.3572 69.0797 60.0909 69.0797 59.3098 69.8608L47.9961 81.1745L36.6824 69.8608C35.9013 69.0797 34.635 69.0797 33.854 69.8608C33.0729 70.6418 33.0729 71.9082 33.854 72.6892L46.5819 85.4171ZM49.4103 10.5887C48.6293 9.80767 47.3629 9.80767 46.5819 10.5887L33.854 23.3166C33.0729 24.0977 33.0729 25.364 33.854 26.1451C34.635 26.9261 35.9013 26.9261 36.6824 26.1451L47.9961 14.8314L59.3098 26.1451C60.0908 26.9261 61.3572 26.9261 62.1382 26.1451C62.9193 25.364 62.9193 24.0977 62.1382 23.3166L49.4103 10.5887ZM47.9961 84.0029L49.9961 84.0029L49.9961 12.0029L47.9961 12.0029L45.9961 12.0029L45.9961 84.0029L47.9961 84.0029Z" fill="#9D9D9D"/>
</svg>
