<svg width="100" height="100" viewBox="0 0 100 100" fill="none" xmlns="http://www.w3.org/2000/svg">
<path d="M63.5995 34C65.0995 34.2 66.4995 35.2 67.1995 36.6C67.4995 37.1 67.5995 37.7 67.6995 38.3C68.2995 38 68.9995 37.9 69.7995 37.9C71.7995 37.9 73.5995 38.8 74.5995 40.4C76.2995 43 77.0995 45.4 76.9995 47.4C76.6995 52.6 74.3995 68.3 68.3995 77.8C67.6995 78.9 67.1995 80 66.8995 81.2L65.8995 84.7C64.9995 87.8 62.1995 90 58.8995 90H47.9995C44.5995 90 41.5995 87.6 40.8995 84.3L39.7995 79.3C39.5995 78.2 39.1995 77.2 38.6995 76.2C32.9995 64.9 30.3995 57.8 30.8995 55.3C30.9995 54.7 31.3995 53.8 31.8995 52.6L23.5995 36.2C23.1995 35.4 22.9995 34.4 22.9995 33.5C22.9995 31.6 23.8995 29.8 25.3995 28.7C26.5995 27.8 27.9995 27.4 29.4995 27.6L26.4995 21C25.7995 19.5 25.7995 17.8 26.3995 16.3C26.9995 14.8 28.1995 13.6 29.6995 13L29.9995 12.9C32.6995 11.8 35.6995 12.9 37.1995 15.3C37.3995 14.4 37.7995 13.6 38.1995 13C39.6995 10.9 42.0995 9.89999 44.6995 10.3C48.0995 10.8 50.5995 14 50.2995 17.4L48.9995 33.7C49.2995 33.7 49.4995 33.6 49.7995 33.6C54.0995 33.3 59.6995 33.5 63.5995 34ZM27.2995 31.1C26.5995 31.7 26.0995 32.5 26.0995 33.5C26.0995 33.9 26.1995 34.4 26.3995 34.8L33.2995 48.4L34.4995 38.3L31.6995 32.3C31.2995 31.5 30.5995 30.9 29.6995 30.7C28.8995 30.4 27.9995 30.6 27.2995 31.1ZM34.9995 17.2C34.3995 15.7 32.6995 15 31.1995 15.6L30.8995 15.7C30.0995 16 29.5995 16.6 29.1995 17.3C28.8995 18.1 28.8995 18.9 29.2995 19.6L34.3995 30.8C34.3995 30.8 34.3995 30.8 34.3995 30.9L35.0995 32.4L36.4995 20.7L34.9995 17.2ZM44.2995 13C42.8995 12.8 41.5995 13.4 40.6995 14.5C40.3995 14.9 40.1995 15.5 40.0995 16.2L36.6995 44.5C39.3995 40.6 42.7995 36.7 45.9995 34.7L47.4995 17C47.5995 15.1 46.1995 13.3 44.2995 13ZM33.8995 55.8C33.5995 57.2 35.7995 63.7 41.3995 74.8C41.9995 76 42.3995 77.3 42.6995 78.6L43.7995 83.6C44.2995 85.6 45.9995 87 47.9995 87H58.8995C60.7995 87 62.4995 85.7 62.9995 83.9L63.9995 80.4C64.3995 78.9 64.9995 77.5 65.8995 76.2C71.4995 67.2 73.6995 51.9 73.9995 47.2C73.9995 45.8 73.2995 44 71.9995 42C71.4995 41.3 70.6995 40.8 69.7995 40.8C69.7995 40.8 69.7995 40.8 69.6995 40.8C68.7995 40.8 67.8995 41.3 67.4995 42.1C67.2995 42.4 67.2995 42.7 67.3995 42.9C68.3995 46.9 67.9995 50.1 66.2995 52.4C63.6995 55.7 58.9995 56.1 55.5995 56.1C53.1995 56.1 51.1995 54.9 49.9995 52.7C48.4995 49.8 48.8995 45.9 50.9995 42.7C53.3995 39.5 58.5995 39.7 62.5995 40.4C63.2995 40.5 63.9995 40.2 64.3995 39.6C64.6995 39.1 64.6995 38.5 64.3995 38C64.0995 37.5 63.6995 37.2 63.0995 37.1C59.3995 36.6 53.9995 36.4 49.8995 36.5C44.6995 36.6 34.6995 51.8 33.8995 55.8ZM64.4995 43.7C64.4995 43.5 64.3995 43.4 64.3995 43.2C63.6995 43.4 62.8995 43.5 62.0995 43.4C57.7995 42.6 54.5995 43.1 53.4995 44.5C51.9995 46.8 51.5995 49.5 52.6995 51.4C53.0995 52.2 53.9995 53.2 55.5995 53.2C58.2995 53.2 62.0995 52.9 63.8995 50.7C65.0995 49.1 65.2995 46.7 64.4995 43.7Z" fill="white"/>
</svg>
