<svg width="141" height="140" viewBox="0 0 141 140" fill="none" xmlns="http://www.w3.org/2000/svg">
<path d="M20.0528 71.1858C20.535 65.9606 21.0322 60.5565 21.1018 55.516V53.2389C21.072 39.3331 21.9519 24.4142 28.7779 19.2138V19.2089C31.199 17.3942 34.346 16.8573 37.2295 17.7671C38.726 18.1549 40.1678 18.7416 41.5101 19.5072C44.6372 12.194 50.1756 11.4979 53.5463 11.7814C56.4099 11.9255 59.0748 13.2927 60.8645 15.5349C62.4306 12.1543 65.6919 9.8822 69.4056 9.58883C73.4674 9.23088 77.4348 10.9411 79.9554 14.1477C80.9099 15.4155 81.6258 16.8473 82.0633 18.3736C84.4348 16.5093 87.4127 15.5994 90.4205 15.8232C96.2273 16.3054 100.219 20.929 100.105 27.0689C100.021 31.4091 100.09 36.1718 100.16 40.9899C100.259 47.3984 100.359 54.0303 100.105 59.8518L100.021 61.557C99.9759 62.3872 99.9362 63.2473 99.9063 64.1123L101.308 62.9291C105.042 59.9611 109.974 58.9518 114.578 60.2196C117.894 61.2139 120.459 63.8539 121.359 67.1948C122.358 70.839 122.224 74.7018 120.976 78.2714C119.221 83.2977 116.929 88.1202 114.14 92.6545C112.385 95.6126 110.789 98.6603 109.353 101.787C106.051 109.349 101.155 118.75 92.559 124.472C86.101 128.539 78.5934 130.617 70.9621 130.448H70.6787C69.7143 130.433 47.1435 130.22 37.304 124.84C16.1602 113.301 18.2284 90.9248 20.0522 71.1873L20.0528 71.1858ZM40.0779 119.743C46.4514 123.228 61.8835 124.585 70.7073 124.645C75.6789 124.376 83.027 123.84 89.3553 119.634C96.6338 114.791 100.87 106.718 104.026 99.4685V99.4635C105.547 96.1573 107.233 92.9259 109.082 89.7887C111.672 85.6176 113.795 81.178 115.426 76.5447C116.326 74.0689 116.45 71.3792 115.794 68.8288C115.436 67.3423 114.312 66.1691 112.846 65.7464C110.096 65.0752 107.193 65.6967 104.961 67.4367L103.33 68.8039C102.013 69.9623 100.626 71.0361 99.174 72.0204L92.8651 78.1752C88.4752 80.9593 81.8331 86.1049 80.8139 88.8542L80.8189 88.8492C80.3963 89.9877 79.3125 90.7434 78.0994 90.7484C77.7564 90.7484 77.4134 90.6887 77.0902 90.5644C75.5937 90.0076 74.8232 88.3421 75.3799 86.8407C77.4332 81.2973 87.7293 74.5658 89.2857 73.6654L94.2424 68.7485V68.7435C94.0833 66.2577 94.0783 63.7619 94.2274 61.2712L94.297 59.6007C94.5506 53.9431 94.4512 47.3955 94.3666 41.0673C94.297 36.1902 94.2274 31.3677 94.297 26.9731C94.3666 23.2842 92.0896 21.7828 89.9369 21.6088C86.8944 21.3254 83.3795 23.4782 82.6039 28.7381L80.9881 58.1356C80.9086 59.6717 79.6359 60.8798 78.0997 60.8849C78.045 60.8849 78.0002 60.8799 77.9456 60.8799L77.9406 60.875C77.175 60.8352 76.459 60.4922 75.947 59.9254C75.4349 59.3537 75.1665 58.6079 75.2062 57.8423V57.8274L76.8368 28.1614C76.8368 28.1515 76.8468 28.1465 76.8468 28.1365C76.8468 28.1216 76.8319 28.1117 76.8368 28.0968C77.1501 24.04 77.2594 20.187 75.3354 17.6763V17.6714C74.0677 16.0356 72.0542 15.1656 69.9959 15.3546C66.8788 15.6778 65.4618 17.8404 64.4129 23.8958L62.4441 58.1398H62.4491C62.3695 59.6759 61.1017 60.879 59.5606 60.884C59.5059 60.884 59.4463 60.879 59.3916 60.879V60.8741C58.6259 60.8293 57.91 60.4863 57.4029 59.9145C56.8909 59.3428 56.6274 58.592 56.6721 57.8315V57.8166L58.6159 23.9556C56.6124 18.5018 55.4789 17.8058 52.9633 17.5573C51.3872 17.3683 47.2261 17.0303 45.5506 26.3769L44.5364 58.0703C44.4817 59.6364 43.199 60.8792 41.6331 60.8842C41.6032 60.8842 41.5685 60.8792 41.5336 60.8743C39.9378 60.8245 38.6849 59.4872 38.7297 57.8863L39.7489 25.9739C39.7538 25.8944 39.8284 25.8496 39.8384 25.7751C39.8433 25.7055 39.7787 25.6508 39.7936 25.5762V25.5563C39.6793 25.1586 38.3221 24.0747 35.687 23.3539V23.3588C34.5485 22.9064 33.261 23.0854 32.2864 23.8262C26.8325 27.9824 26.8922 46.9783 26.9071 53.2185V55.6049C26.8226 60.8648 26.3105 66.3883 25.8333 71.7278C24.0037 91.4207 22.2935 110.029 40.0763 119.744L40.0779 119.743Z" fill="#54577F"/>
</svg>
