<svg width="80" height="80" viewBox="0 0 80 80" fill="none" xmlns="http://www.w3.org/2000/svg">
<ellipse cx="66" cy="40" rx="12" ry="12" transform="rotate(90 66 40)" fill="white"/>
<circle cx="40" cy="66" r="12" fill="white"/>
<path d="M40 2C46.6274 2 52 7.37258 52 14C52 20.6274 46.6274 26 40 26V26C35.8029 26 31.0191 25.032 28.1165 28.0637C28.0422 28.1413 27.9686 28.2197 27.8956 28.2988C25.1267 31.3008 26 35.9159 26 40V40C26 46.6274 20.6274 52 14 52C7.37258 52 2 46.6274 2 40C2 33.3726 7.37258 28 14 28V28C17.9072 28 22.2803 28.7871 25.1776 26.1657C25.487 25.8858 25.7868 25.5947 26.0777 25.2911C28.8228 22.4263 28 17.9676 28 14V14C28 7.37258 33.3726 2 40 2Z" fill="white"/>
</svg>
