<svg width="96" height="96" viewBox="0 0 96 96" fill="none" xmlns="http://www.w3.org/2000/svg">
<path d="M10.5897 46.5838C9.80864 47.3649 9.80864 48.6312 10.5897 49.4123L23.3176 62.1402C24.0987 62.9212 25.365 62.9212 26.146 62.1402C26.9271 61.3591 26.9271 60.0928 26.146 59.3118L14.8323 47.998L26.146 36.6843C26.9271 35.9033 26.9271 34.637 26.146 33.8559C25.365 33.0749 24.0987 33.0749 23.3176 33.8559L10.5897 46.5838ZM85.4181 49.4123C86.1992 48.6312 86.1992 47.3649 85.4181 46.5838L72.6902 33.8559C71.9091 33.0749 70.6428 33.0749 69.8618 33.8559C69.0807 34.637 69.0807 35.9033 69.8618 36.6843L81.1755 47.998L69.8618 59.3118C69.0807 60.0928 69.0807 61.3591 69.8618 62.1402C70.6428 62.9212 71.9091 62.9212 72.6902 62.1402L85.4181 49.4123ZM12.0039 47.998V49.998L84.0039 49.998V47.998V45.998L12.0039 45.998V47.998Z" fill="#9D9D9D"/>
</svg>
