<svg width="96" height="96" viewBox="0 0 96 96" fill="none" xmlns="http://www.w3.org/2000/svg">
<path d="M20.543 73.4551C20.543 74.5596 21.4384 75.4551 22.543 75.4551H40.543C41.6475 75.4551 42.543 74.5596 42.543 73.4551C42.543 72.3505 41.6475 71.4551 40.543 71.4551H24.543V55.4551C24.543 54.3505 23.6475 53.4551 22.543 53.4551C21.4384 53.4551 20.543 54.3505 20.543 55.4551V73.4551ZM75.4547 22.5434C75.4547 21.4388 74.5592 20.5434 73.4547 20.5434H55.4547C54.3501 20.5434 53.4547 21.4388 53.4547 22.5434C53.4547 23.648 54.3501 24.5434 55.4547 24.5434H71.4547V40.5434C71.4547 41.648 72.3501 42.5434 73.4547 42.5434C74.5592 42.5434 75.4547 41.648 75.4547 40.5434V22.5434ZM22.543 73.4551L23.9572 74.8693L74.8689 23.9576L73.4547 22.5434L72.0404 21.1292L21.1288 72.0409L22.543 73.4551Z" fill="#9D9D9D"/>
</svg>
