<svg width="100" height="100" viewBox="0 0 100 100" fill="none" xmlns="http://www.w3.org/2000/svg">
<path d="M21.9367 50.6052L22.6626 51.948C25.0865 56.3497 26.3908 61.4906 26.5755 67.3707C26.7235 73.1143 29.8135 78.3623 34.8364 81.2623L41.7646 85.2623C49.6455 89.8123 59.8406 87.1538 64.4406 79.1863L75.3906 60.2204C77.1406 57.1893 76.1158 53.3644 73.0847 51.6144C71.9588 50.9644 70.633 50.6608 69.417 50.767C69.9742 48.202 68.8457 45.3565 66.4208 43.9565C65.295 43.3065 64.0558 43.0529 62.8397 43.1591C63.5835 40.4709 62.3685 37.5754 59.9436 36.1754C58.9044 35.5754 57.8017 35.2852 56.6357 35.3048L62.6857 24.8259C64.3857 21.8815 63.534 18.1566 60.9128 16.2968C59.4039 15.3102 57.5451 14.9298 55.7692 15.4056C54.13 15.8449 52.8104 16.9305 52.0104 18.3161L34.8604 48.0208L33.0025 44.6388C31.341 41.7165 27.8367 40.3861 24.8913 41.6878C23.6485 42.2404 22.6521 43.1663 22.0021 44.2921C20.9387 46.3339 20.9279 48.7526 21.9367 50.6052ZM26.1064 44.5832C27.6224 43.9574 29.5544 44.611 30.4401 46.277L33.6398 51.9349C33.9228 52.4447 34.3558 52.6947 34.9389 52.6849C35.5219 52.6751 36.0317 52.3921 36.2817 51.9591L54.7317 20.0027C55.1817 19.2233 55.8415 18.6805 56.7477 18.5109C57.7039 18.2547 58.6333 18.4449 59.4128 18.8949C60.835 19.8315 61.1608 21.8671 60.2608 23.4259L46.9108 46.5488C46.5108 47.2416 46.7671 48.1979 47.4599 48.5979C48.1527 48.9979 49.1089 48.7416 49.5089 48.0488L54.1089 40.0814C55.0089 38.5225 57.058 37.9735 58.6168 38.8735C60.1756 39.7735 60.7247 41.8225 59.8247 43.3814L54.1247 53.2541C53.7247 53.9469 53.9809 54.9031 54.6737 55.3031C55.3665 55.7031 56.3228 55.4469 56.7228 54.7541L60.6728 47.9125C61.5728 46.3536 63.6218 45.8046 65.1806 46.7046C66.7395 47.6046 67.2885 49.6536 66.3885 51.2125L60.9385 60.6522C60.5385 61.345 60.7947 62.3012 61.4876 62.7012C62.1804 63.1012 63.1366 62.845 63.5366 62.1522L67.3866 55.4838C68.2866 53.9249 70.3356 53.3759 71.8945 54.2759C73.4533 55.1759 74.0024 57.2249 73.1024 58.7838L62.1524 77.7497C58.1792 84.2315 49.8464 86.4643 43.3512 82.7143L36.423 78.7143C32.3527 76.3643 29.7422 72.0858 29.6271 67.2851C29.4692 60.9586 28.0185 55.2713 25.3482 50.4964L24.6224 49.1536C24.0564 48.134 24.0867 46.8813 24.6367 45.9287C24.9867 45.3225 25.5099 44.8163 26.1064 44.5832Z" fill="white"/>
</svg>
