<svg width="141" height="140" viewBox="0 0 141 140" fill="none" xmlns="http://www.w3.org/2000/svg">
<path d="M120.947 71.1858C120.465 65.9606 119.968 60.5565 119.898 55.516V53.2389C119.928 39.3331 119.048 24.4142 112.222 19.2138V19.2089C109.801 17.3942 106.654 16.8573 103.77 17.7671C102.274 18.1549 100.832 18.7416 99.4899 19.5072C96.3628 12.194 90.8244 11.4979 87.4537 11.7814C84.5901 11.9255 81.9252 13.2927 80.1355 15.5349C78.5694 12.1543 75.3081 9.8822 71.5944 9.58883C67.5326 9.23088 63.5652 10.9411 61.0446 14.1477C60.0901 15.4155 59.3742 16.8473 58.9367 18.3736C56.5652 16.5093 53.5873 15.5994 50.5795 15.8232C44.7727 16.3054 40.7805 20.929 40.8948 27.0689C40.9793 31.4091 40.9097 36.1718 40.8401 40.9899C40.7407 47.3984 40.6412 54.0303 40.8948 59.8518L40.9793 61.557C41.0241 62.3872 41.0638 63.2473 41.0937 64.1123L39.6916 62.9291C35.9579 59.9611 31.0261 58.9518 26.4222 60.2196C23.1061 61.2139 20.5408 63.8539 19.6409 67.1948C18.6417 70.839 18.7759 74.7018 20.0238 78.2714C21.7787 83.2977 24.0706 88.1202 26.8597 92.6545C28.6147 95.6126 30.2105 98.6603 31.6473 101.787C34.9485 109.349 39.8455 118.75 48.441 124.472C54.899 128.539 62.4066 130.617 70.0379 130.448H70.3213C71.2857 130.433 93.8565 130.22 103.696 124.84C124.84 113.301 122.772 90.9248 120.948 71.1873L120.947 71.1858ZM100.922 119.743C94.5486 123.228 79.1165 124.585 70.2927 124.645C65.3211 124.376 57.973 123.84 51.6447 119.634C44.3662 114.791 40.1304 106.718 36.9739 99.4685V99.4635C35.4526 96.1573 33.7673 92.9259 31.9178 89.7887C29.3275 85.6176 27.2047 81.178 25.574 76.5447C24.6741 74.0689 24.5498 71.3792 25.2061 68.8288C25.564 67.3423 26.6877 66.1691 28.1542 65.7464C30.9036 65.0752 33.8069 65.6967 36.0392 67.4367L37.6698 68.8039C38.9873 69.9623 40.3743 71.0361 41.826 72.0204L48.1349 78.1752C52.5248 80.9593 59.1669 86.1049 60.1861 88.8542L60.1811 88.8492C60.6037 89.9877 61.6875 90.7434 62.9006 90.7484C63.2436 90.7484 63.5866 90.6887 63.9098 90.5644C65.4063 90.0076 66.1768 88.3421 65.6201 86.8407C63.5668 81.2973 53.2707 74.5658 51.7143 73.6654L46.7576 68.7485V68.7435C46.9167 66.2577 46.9217 63.7619 46.7726 61.2712L46.703 59.6007C46.4494 53.9431 46.5488 47.3955 46.6334 41.0673C46.703 36.1902 46.7726 31.3677 46.703 26.9731C46.6334 23.2842 48.9104 21.7828 51.0631 21.6088C54.1056 21.3254 57.6205 23.4782 58.3961 28.7381L60.0119 58.1356C60.0914 59.6717 61.3641 60.8798 62.9003 60.8849C62.955 60.8849 62.9998 60.8799 63.0544 60.8799L63.0594 60.875C63.825 60.8352 64.541 60.4922 65.053 59.9254C65.5651 59.3537 65.8335 58.6079 65.7938 57.8423V57.8274L64.1632 28.1614C64.1632 28.1515 64.1532 28.1465 64.1532 28.1365C64.1532 28.1216 64.1681 28.1117 64.1632 28.0968C63.8499 24.04 63.7406 20.187 65.6646 17.6763V17.6714C66.9323 16.0356 68.9458 15.1656 71.0041 15.3546C74.1212 15.6778 75.5382 17.8404 76.5871 23.8958L78.5559 58.1398H78.5509C78.6305 59.6759 79.8983 60.879 81.4394 60.884C81.4941 60.884 81.5537 60.879 81.6084 60.879V60.8741C82.3741 60.8293 83.09 60.4863 83.5971 59.9145C84.1091 59.3428 84.3726 58.592 84.3279 57.8315V57.8166L82.3841 23.9556C84.3876 18.5018 85.5211 17.8058 88.0367 17.5573C89.6128 17.3683 93.7739 17.0303 95.4494 26.3769L96.4636 58.0703C96.5183 59.6364 97.801 60.8792 99.3669 60.8842C99.3968 60.8842 99.4315 60.8792 99.4664 60.8743C101.062 60.8245 102.315 59.4872 102.27 57.8863L101.251 25.9739C101.246 25.8944 101.172 25.8496 101.162 25.7751C101.157 25.7055 101.221 25.6508 101.206 25.5762V25.5563C101.321 25.1586 102.678 24.0747 105.313 23.3539V23.3588C106.451 22.9064 107.739 23.0854 108.714 23.8262C114.167 27.9824 114.108 46.9783 114.093 53.2185V55.6049C114.177 60.8648 114.689 66.3883 115.167 71.7278C116.996 91.4207 118.706 110.029 100.924 119.744L100.922 119.743Z" fill="#54577F"/>
</svg>
