<svg width="100" height="100" viewBox="0 0 100 100" fill="none" xmlns="http://www.w3.org/2000/svg">
<path d="M36.4005 34C34.9005 34.2 33.5005 35.2 32.8005 36.6C32.5005 37.1 32.4005 37.7 32.3005 38.3C31.7005 38 31.0005 37.9 30.2005 37.9C28.2005 37.9 26.4005 38.8 25.4005 40.4C23.7005 43 22.9005 45.4 23.0005 47.4C23.3005 52.6 25.6005 68.3 31.6005 77.8C32.3005 78.9 32.8005 80 33.1005 81.2L34.1005 84.7C35.0005 87.8 37.8005 90 41.1005 90H52.0005C55.4005 90 58.4005 87.6 59.1005 84.3L60.2005 79.3C60.4005 78.2 60.8005 77.2 61.3005 76.2C67.0005 64.9 69.6005 57.8 69.1005 55.3C69.0005 54.7 68.6005 53.8 68.1005 52.6L76.4005 36.2C76.8005 35.4 77.0005 34.4 77.0005 33.5C77.0005 31.6 76.1005 29.8 74.6005 28.7C73.4005 27.8 72.0005 27.4 70.5005 27.6L73.5005 21C74.2005 19.5 74.2005 17.8 73.6005 16.3C73.0005 14.8 71.8005 13.6 70.3005 13L70.0005 12.9C67.3005 11.8 64.3005 12.9 62.8005 15.3C62.6005 14.4 62.2005 13.6 61.8005 13C60.3005 10.9 57.9005 9.89999 55.3005 10.3C51.9005 10.8 49.4005 14 49.7005 17.4L51.0005 33.7C50.7005 33.7 50.5005 33.6 50.2005 33.6C45.9005 33.3 40.3005 33.5 36.4005 34ZM72.7005 31.1C73.4005 31.7 73.9005 32.5 73.9005 33.5C73.9005 33.9 73.8005 34.4 73.6005 34.8L66.7005 48.4L65.5005 38.3L68.3005 32.3C68.7005 31.5 69.4005 30.9 70.3005 30.7C71.1005 30.4 72.0005 30.6 72.7005 31.1ZM65.0005 17.2C65.6005 15.7 67.3005 15 68.8005 15.6L69.1005 15.7C69.9005 16 70.4005 16.6 70.8005 17.3C71.1005 18.1 71.1005 18.9 70.7005 19.6L65.6005 30.8C65.6005 30.8 65.6005 30.8 65.6005 30.9L64.9005 32.4L63.5005 20.7L65.0005 17.2ZM55.7005 13C57.1005 12.8 58.4005 13.4 59.3005 14.5C59.6005 14.9 59.8005 15.5 59.9005 16.2L63.3005 44.5C60.6005 40.6 57.2005 36.7 54.0005 34.7L52.5005 17C52.4005 15.1 53.8005 13.3 55.7005 13ZM66.1005 55.8C66.4005 57.2 64.2005 63.7 58.6005 74.8C58.0005 76 57.6005 77.3 57.3005 78.6L56.2005 83.6C55.7005 85.6 54.0005 87 52.0005 87H41.1005C39.2005 87 37.5005 85.7 37.0005 83.9L36.0005 80.4C35.6005 78.9 35.0005 77.5 34.1005 76.2C28.5005 67.2 26.3005 51.9 26.0005 47.2C26.0005 45.8 26.7005 44 28.0005 42C28.5005 41.3 29.3005 40.8 30.2005 40.8C30.2005 40.8 30.2005 40.8 30.3005 40.8C31.2005 40.8 32.1005 41.3 32.5005 42.1C32.7005 42.4 32.7005 42.7 32.6005 42.9C31.6005 46.9 32.0005 50.1 33.7005 52.4C36.3005 55.7 41.0005 56.1 44.4005 56.1C46.8005 56.1 48.8005 54.9 50.0005 52.7C51.5005 49.8 51.1005 45.9 49.0005 42.7C46.6005 39.5 41.4005 39.7 37.4005 40.4C36.7005 40.5 36.0005 40.2 35.6005 39.6C35.3005 39.1 35.3005 38.5 35.6005 38C35.9005 37.5 36.3005 37.2 36.9005 37.1C40.6005 36.6 46.0005 36.4 50.1005 36.5C55.3005 36.6 65.3005 51.8 66.1005 55.8ZM35.5005 43.7C35.5005 43.5 35.6005 43.4 35.6005 43.2C36.3005 43.4 37.1005 43.5 37.9005 43.4C42.2005 42.6 45.4005 43.1 46.5005 44.5C48.0005 46.8 48.4005 49.5 47.3005 51.4C46.9005 52.2 46.0005 53.2 44.4005 53.2C41.7005 53.2 37.9005 52.9 36.1005 50.7C34.9005 49.1 34.7005 46.7 35.5005 43.7Z" fill="white"/>
</svg>
