<svg width="100" height="100" viewBox="0 0 100 100" fill="none" xmlns="http://www.w3.org/2000/svg">
<path d="M77.9249 33.4688C79.6395 31.0116 81.4097 28.4691 82.4397 25.3182C83.6485 21.6141 82.8807 18.4269 80.3365 16.5752C77.1323 14.2425 71.5568 14.5315 67.6433 17.232C65.0405 19.0294 62.7646 23.1927 60.6831 29.9628C59.9984 32.189 59.4618 34.3056 59.0763 35.9539C59.0455 35.9266 59.0147 35.9023 58.9807 35.8749C58.8574 35.7745 58.7618 35.6985 58.7155 35.659C56.341 33.5454 53.8184 31.7723 51.2156 30.3825C47.2744 28.278 43.0769 27.2106 38.7474 27.2106H38.7196C34.6273 27.2166 30.412 28.1746 26.1868 30.0571C22.4306 31.7297 20.1855 33.8069 19.3159 36.4071C18.7332 38.1527 18.9027 40.0656 19.8125 41.936C20.0993 42.529 20.4385 43.0734 20.7963 43.563C19.4888 44.8768 18.2798 46.7532 18.0609 48.8456C17.8974 50.4118 18.3138 51.8867 19.2667 53.1276C17.7864 54.7151 17.0062 56.5063 17 58.3523C16.9938 60.3108 17.879 62.172 19.5627 63.7322C21.9713 65.9675 25.3327 67.5094 28.7498 68.145C28.8022 68.3214 28.8793 68.4887 28.9903 68.6468C29.1291 68.8445 32.4535 73.5279 38.9447 74.1027C39.3826 74.1422 39.8237 74.1605 40.2678 74.1605C44.0178 74.1605 47.9621 72.7738 52.0546 70.0184C52.7114 71.3687 53.7847 74.1879 54.4847 79.206C54.7468 81.0825 55.8076 82.7733 57.3988 83.8378C58.5368 84.601 59.8722 84.9995 61.226 84.9995C61.7657 84.9995 62.3023 84.9356 62.8327 84.8079L77.108 81.3744C79.0724 80.8999 80.713 79.6014 81.6011 77.8101C82.4923 76.0188 82.5294 73.9448 81.703 72.1231C78.0424 64.0457 74.2554 55.6919 73.9192 46.2878C73.8112 43.3348 74.1628 39.0923 76.4326 35.6467C76.9167 34.9137 77.4284 34.1775 77.9249 33.4688ZM21.5945 49.204C21.6994 48.1943 22.3193 47.0478 23.2382 46.102C26.0384 48.3677 29.6218 49.943 33.1129 50.4417C36.5576 50.9314 39.293 51.0469 41.4702 50.9253C43.5272 53.9056 42.8426 54.3983 42.2906 54.7937C40.1349 56.3387 36.2524 56.7431 31.898 55.8764C27.7502 55.0492 23.9385 53.1819 22.1899 51.123C21.715 50.5634 21.5175 49.9339 21.5945 49.204ZM21.9986 61.1804C21.0395 60.2863 20.5523 59.3404 20.5553 58.3612C20.5584 57.4306 21.021 56.4361 21.8722 55.5147C24.3022 57.2238 27.6298 58.5984 31.1974 59.3101C32.9398 59.6568 34.6236 59.8301 36.2025 59.8301C36.6959 59.8301 37.1801 59.8118 37.655 59.7784C38.2285 60.9705 38.3919 61.9437 38.136 62.6249C37.8585 63.3608 37.0134 63.9782 35.6319 64.4527C31.6321 65.8273 25.3901 64.3311 21.9977 61.1804H21.9986ZM73.4531 33.7429C70.6808 37.955 70.2459 42.9609 70.3693 46.4153C70.7301 56.4998 74.659 65.1704 78.4614 73.5546C78.8561 74.4244 78.8376 75.4127 78.412 76.2704C77.9864 77.128 77.2032 77.7453 76.2656 77.9704L61.9904 81.404C61.0869 81.6198 60.1678 81.4557 59.3968 80.9417C58.6258 80.4247 58.1324 79.64 58.006 78.7276C57.1611 72.6665 55.7795 69.3975 54.9376 67.8739C56.2205 66.8308 57.5157 65.6538 58.8233 64.3522C59.5141 63.6649 59.5078 62.5549 58.8109 61.8737C58.1139 61.1924 56.9883 61.1985 56.2975 61.8858C52.8559 65.3132 49.5192 67.7736 46.377 69.1938C43.8915 70.319 41.5169 70.7965 39.3242 70.617C36.7985 70.4072 34.9112 69.3701 33.6746 68.4061C34.7694 68.3058 35.821 68.0929 36.7955 67.7584C39.2255 66.9221 40.7952 65.6052 41.4582 63.8474C41.9887 62.4454 41.9147 60.8914 41.2332 59.1397C42.4235 58.7778 43.4844 58.2729 44.3787 57.6282C46.0748 56.4117 46.741 54.6356 46.2537 52.6254C46.0625 51.8347 45.7171 51.0774 45.3039 50.3536C46.7533 49.9643 47.7432 49.4321 48.4155 48.9029C49.5905 47.9784 50.2782 46.7285 50.3985 45.284C50.4693 44.4172 50.3275 43.5262 49.9667 42.6381C49.097 40.4697 47.1912 38.6572 44.6007 37.5289C41.6957 36.2638 38.6088 35.8897 36.53 35.7954C35.5493 35.7528 34.7197 36.4979 34.6734 37.465C34.6272 38.4321 35.3889 39.2502 36.3695 39.2959C38.9169 39.4084 41.2667 39.9072 43.1664 40.7344C44.1687 41.1693 45.9542 42.1637 46.6635 43.9277C46.8177 44.3139 46.8825 44.6727 46.8548 44.9982C46.8146 45.4787 46.6111 45.8375 46.1979 46.1629C44.4679 47.5224 39.6446 47.8356 33.6129 46.975C30.677 46.5552 27.6548 45.202 25.3203 43.2586C23.6735 41.8871 21.996 39.5575 22.6837 37.5017C23.2233 35.8868 24.8455 34.497 27.6457 33.2471C35.4077 29.7862 42.7688 29.8561 49.5195 33.463C51.8726 34.719 54.1669 36.3339 56.3318 38.259C56.4119 38.329 56.5137 38.4142 56.7172 38.5783C57.7812 39.439 58.2468 39.8739 58.4442 40.0929C58.6477 40.6737 59.1535 41.1299 59.8073 41.2485C60.7695 41.4189 61.6977 40.7893 61.8704 39.8374C61.8828 39.7705 62.663 35.5584 64.0723 30.9752C66.45 23.2293 68.5995 20.8362 69.6664 20.0997C72.3155 18.2719 76.2289 17.9466 78.2148 19.3911C79.51 20.3338 79.7907 21.967 79.0475 24.2418C78.1778 26.9059 76.6297 29.129 74.9891 31.4829C74.4896 32.2128 73.962 32.9674 73.4531 33.7429Z" fill="#822ECF"/>
<path d="M57.2058 62.9995C56.7325 62.9995 56.2593 62.862 55.9076 62.5892C53.7532 60.9229 48.1775 61.8764 46.3932 62.3417C45.4592 62.5847 44.435 62.2271 44.105 61.5394C43.7719 60.8518 44.2576 60.1 45.1915 59.8547C45.2818 59.8318 47.4113 59.2771 50.017 59.0732C53.7591 58.7798 56.6948 59.3665 58.5064 60.7693C59.1882 61.2965 59.1602 62.1331 58.4441 62.6374C58.0954 62.8803 57.651 62.9995 57.2058 62.9995Z" fill="#822ECF"/>
</svg>
